<?xml version="1.0" standalone="no"?>
<!DOCTYPE svg PUBLIC "-//W3C//DTD SVG 20010904//EN"
 "http://www.w3.org/TR/2001/REC-SVG-20010904/DTD/svg10.dtd">
<svg version="1.0" xmlns="http://www.w3.org/2000/svg"
 width="920.000000pt" height="930.000000pt" viewBox="0 0 920.000000 930.000000"
 preserveAspectRatio="xMidYMid meet">

<g transform="translate(0.000000,930.000000) scale(0.100000,-0.100000)"
fill="#000000" stroke="none">
<path d="M5125 8990 c-4 -28 -5 -53 -4 -55 2 -2 29 -6 60 -10 l57 -7 7 52 c4
28 5 53 4 55 -2 2 -29 6 -60 10 l-57 7 -7 -52z"/>
<path d="M4280 8891 c-74 -40 -110 -109 -110 -214 0 -82 18 -135 61 -178 61
-61 176 -75 267 -32 32 15 82 76 82 100 0 6 -23 15 -52 20 -51 8 -54 8 -84
-24 -20 -21 -41 -33 -58 -33 -32 0 -83 46 -92 83 l-6 27 136 1 c75 1 142 2
149 3 18 2 21 43 7 105 -14 61 -65 126 -117 148 -47 19 -141 16 -183 -6z m154
-93 c14 -13 28 -35 32 -50 l6 -28 -92 0 -92 0 7 28 c10 42 44 72 81 72 20 0
43 -9 58 -22z"/>
<path d="M4726 8858 c-8 -65 -29 -399 -25 -403 6 -5 108 -9 113 -4 2 2 9 62
15 133 7 76 18 142 27 162 19 39 53 52 90 35 14 -6 27 -11 29 -11 4 0 45 88
45 97 0 2 -16 11 -36 19 -45 19 -80 12 -116 -24 l-28 -26 0 32 0 32 -54 0 -55
0 -5 -42z"/>
<path d="M3950 8876 l-45 -12 -10 -149 -10 -150 -36 65 c-20 36 -51 94 -69
130 -18 36 -33 66 -34 67 0 1 -26 -4 -56 -11 l-55 -12 -6 -115 c-4 -63 -7
-130 -8 -149 -1 -32 -7 -25 -72 94 l-72 128 -51 -7 c-28 -3 -54 -9 -58 -13 -7
-8 227 -407 239 -407 33 2 94 19 102 29 6 7 12 75 13 152 l3 139 49 -90 c27
-49 59 -109 72 -132 l24 -41 51 13 c28 8 53 16 56 19 3 2 11 80 18 173 8 92
17 196 20 231 6 69 8 68 -65 48z"/>
<path d="M5106 8832 c-15 -96 -48 -404 -44 -407 2 -2 30 -7 61 -11 52 -6 57
-5 57 12 0 11 11 111 24 224 14 112 24 205 23 206 -1 1 -28 4 -59 7 l-57 5 -5
-36z"/>
<path d="M5406 8798 c-3 -12 -26 -108 -51 -212 -25 -104 -45 -192 -45 -197 0
-9 64 -29 96 -29 17 0 23 13 43 98 52 214 62 232 135 232 35 0 48 -5 60 -22
22 -31 20 -51 -14 -200 -16 -71 -30 -135 -30 -142 0 -14 100 -41 110 -29 8 10
68 266 75 323 8 58 -18 107 -71 134 -48 25 -127 26 -172 2 l-34 -18 7 30 c5
26 3 30 -23 35 -16 3 -41 9 -55 12 -22 6 -27 3 -31 -17z"/>
<path d="M3023 8619 c-111 -54 -158 -171 -118 -290 47 -138 187 -197 320 -135
95 44 142 123 132 226 -8 91 -54 162 -129 201 -51 26 -149 25 -205 -2z m152
-101 c33 -26 64 -91 65 -135 0 -67 -43 -113 -108 -113 -82 0 -151 141 -108
219 29 52 104 66 151 29z"/>
<path d="M6035 8618 c-55 -20 -93 -57 -124 -121 -55 -112 -51 -207 13 -270 47
-47 114 -65 166 -44 22 8 40 11 40 6 0 -24 -52 -109 -68 -111 -60 -5 -119 21
-124 54 -2 17 -21 32 -65 56 l-62 33 -7 -36 c-13 -73 18 -120 109 -165 70 -34
146 -49 195 -39 67 14 99 62 180 275 27 71 61 159 75 196 l26 67 -50 16 c-52
18 -64 14 -71 -20 -3 -16 -7 -13 -23 18 -34 71 -136 113 -210 85z m136 -111
c42 -32 50 -97 20 -163 -54 -118 -191 -111 -191 11 0 91 53 165 119 165 20 0
43 -6 52 -13z"/>
<path d="M6858 8392 c-14 -20 -65 -102 -115 -182 -50 -80 -113 -181 -142 -225
-51 -79 -51 -80 -30 -96 30 -22 89 -53 92 -48 2 2 76 120 165 263 180 287 172
259 91 305 l-36 21 -25 -38z"/>
<path d="M2534 8401 c-46 -21 -83 -63 -91 -103 -5 -25 -23 -40 -23 -20 0 4 -4
13 -9 21 -8 12 -17 11 -55 -10 -25 -13 -46 -28 -46 -33 0 -7 290 -515 305
-534 2 -2 91 45 104 54 2 2 -14 31 -34 66 -21 35 -47 78 -58 97 l-20 34 36 -7
c56 -11 110 9 151 54 43 48 50 73 43 151 -12 130 -126 250 -238 249 -13 0 -42
-9 -65 -19z m119 -129 c87 -83 89 -206 4 -227 -83 -21 -192 120 -158 203 27
64 100 76 154 24z"/>
<path d="M6906 7943 l-138 -176 23 -19 c13 -10 36 -27 50 -38 l25 -19 55 72
c29 40 76 96 103 125 43 45 54 52 88 52 28 0 46 -7 63 -25 43 -42 34 -63 -88
-218 -40 -50 -76 -97 -80 -103 -5 -9 70 -74 87 -74 7 0 159 188 194 241 42 63
46 92 23 144 -27 62 -87 100 -157 100 l-53 0 16 24 c15 24 15 26 -23 58 -21
18 -41 33 -44 33 -3 0 -67 -80 -144 -177z"/>
<path d="M2038 8090 c-47 -25 -77 -64 -84 -110 -6 -38 -6 -38 -53 -36 -36 1
-56 -5 -84 -24 -39 -27 -77 -85 -77 -119 0 -24 -15 -28 -24 -6 -8 23 -27 18
-68 -18 l-37 -32 134 -170 c74 -93 140 -171 147 -172 7 -2 31 13 52 31 l40 34
-78 98 c-122 154 -137 207 -71 250 40 26 62 9 171 -130 l98 -124 44 31 c24 17
45 34 48 38 2 4 -32 51 -75 106 -117 148 -129 178 -90 227 16 21 28 26 53 24
26 -3 44 -19 111 -104 45 -55 90 -113 102 -129 l20 -28 47 33 c25 18 46 37 46
42 0 4 -48 68 -106 142 -134 169 -176 193 -266 146z"/>
<path d="M1190 7521 c-80 -92 -143 -172 -141 -177 3 -5 108 -98 234 -207 188
-163 232 -196 242 -185 68 73 295 339 294 345 0 4 -17 21 -36 38 l-36 29 -58
-64 c-33 -36 -83 -93 -111 -127 -29 -34 -57 -62 -63 -62 -5 0 -36 23 -68 52
l-59 52 101 115 c56 63 101 117 100 120 0 3 -18 20 -39 37 l-37 33 -99 -115
c-54 -63 -103 -115 -108 -115 -9 0 -89 69 -94 82 -2 4 44 63 103 129 l106 122
-32 33 c-18 19 -38 34 -43 33 -6 0 -76 -76 -156 -168z"/>
<path d="M7432 7661 c-23 -11 -67 -45 -97 -74 -86 -86 -105 -190 -51 -269 27
-40 80 -68 130 -68 l39 0 -23 -25 -24 -25 34 -35 c19 -19 39 -35 44 -35 12 0
438 406 445 422 2 5 -14 27 -35 49 l-37 38 -84 -75 -83 -76 0 32 c0 44 -37
107 -77 131 -48 30 -128 34 -181 10z m163 -125 c38 -38 41 -69 10 -121 -30
-52 -86 -93 -138 -102 -31 -5 -40 -1 -68 26 -28 28 -31 37 -26 71 5 42 39 90
90 128 42 30 100 30 132 -2z"/>
<path d="M8007 7373 c-20 -14 -37 -30 -37 -35 0 -11 61 -88 70 -88 3 0 25 14
48 32 l41 31 -36 44 c-19 23 -38 43 -42 43 -3 0 -23 -12 -44 -27z"/>
<path d="M5070 7325 c-66 -30 -105 -83 -130 -174 -11 -41 -13 -43 -43 -37
-169 34 -441 28 -655 -15 -50 -10 -52 -12 -46 -37 4 -15 8 -28 10 -30 1 -2 48
4 105 13 56 9 153 19 216 22 l113 6 0 -31 0 -32 -139 0 c-135 0 -140 -1 -170
-26 -27 -22 -31 -32 -31 -74 0 -38 5 -53 26 -74 26 -25 29 -26 160 -26 132 0
134 0 165 -28 27 -24 30 -31 21 -49 -15 -27 -81 -53 -136 -53 -38 0 -122 21
-177 44 -11 5 -22 -2 -34 -20 -20 -31 -33 -15 104 -128 l72 -59 22 21 21 22
-26 27 -27 28 62 1 c178 3 255 166 114 241 -23 12 -69 18 -164 22 -72 4 -135
9 -138 13 -4 3 -4 16 0 27 6 20 13 21 171 21 l164 0 0 59 c0 33 3 62 8 64 7 5
179 -10 198 -17 12 -5 -18 -153 -70 -346 -14 -52 -22 -97 -18 -101 10 -9 62
-21 62 -14 0 10 102 440 106 444 5 6 104 -21 104 -28 0 -5 -9 -34 -21 -67 -28
-82 -24 -182 10 -218 80 -85 201 0 264 186 6 16 14 14 83 -17 123 -56 364
-211 364 -234 0 -5 -9 -16 -21 -27 -14 -12 -24 -15 -34 -9 -144 101 -189 128
-221 135 -80 18 -134 -17 -134 -86 0 -37 7 -51 46 -96 25 -29 72 -78 104 -108
74 -70 81 -91 41 -130 -50 -50 -131 -39 -193 27 -33 34 -65 104 -74 162 -7 41
-8 43 -37 37 -17 -3 -32 -8 -34 -10 -2 -2 1 -25 8 -52 33 -133 98 -219 189
-249 114 -38 230 25 230 125 0 51 -18 78 -114 171 -48 46 -92 92 -97 102 -16
28 8 50 45 43 30 -6 140 -76 224 -143 l42 -34 26 31 c14 17 34 40 43 51 16 20
18 19 119 -85 56 -58 112 -123 126 -143 22 -35 23 -44 16 -115 -10 -92 -31
-141 -75 -168 -88 -54 -120 -8 -101 143 7 57 7 57 -19 57 -34 0 -94 -26 -123
-53 -97 -90 -76 -236 54 -376 56 -61 62 -71 42 -71 -7 0 -30 -5 -50 -11 -29
-8 -38 -15 -38 -32 0 -49 5 -49 275 28 143 41 263 75 266 75 6 0 29 -115 29
-147 0 -16 -26 -25 -207 -67 -115 -26 -221 -51 -238 -55 -25 -6 -29 -12 -27
-32 2 -13 7 -28 12 -33 4 -4 59 4 122 19 209 50 320 75 334 75 10 0 14 -13 14
-40 0 -38 2 -40 30 -40 l30 0 0 83 c0 175 -51 371 -145 562 -213 429 -654 773
-1160 905 -79 20 -111 33 -113 45 -6 28 45 119 77 138 34 20 93 22 142 5 84
-28 219 -143 290 -248 19 -27 36 -50 39 -50 3 0 16 9 29 19 l25 19 -44 59
c-24 32 -76 90 -115 129 -125 124 -280 181 -375 139z m218 -380 c10 -8 -49
-126 -79 -157 -37 -39 -53 -45 -79 -28 -23 15 -18 114 9 177 l23 51 61 -20
c34 -12 63 -22 65 -23z m993 -962 c12 -40 21 -74 18 -77 -2 -2 -78 -25 -168
-50 l-163 -47 -34 26 c-46 35 -112 120 -137 174 -23 53 -19 131 8 161 27 30
35 24 35 -26 0 -55 23 -107 59 -135 21 -17 36 -20 74 -16 85 8 154 84 178 196
l11 54 48 -94 c26 -52 58 -127 71 -166z"/>
<path d="M7743 7163 c-94 -76 -172 -142 -172 -147 -1 -12 59 -86 70 -86 5 0
85 62 178 137 184 148 178 138 124 201 l-28 32 -172 -137z"/>
<path d="M3860 7001 c-261 -103 -534 -284 -690 -458 l-50 -57 -112 -7 c-62 -4
-134 -8 -159 -8 l-45 -1 -17 -53 c-21 -66 -21 -87 -3 -87 8 0 21 -2 28 -5 10
-4 18 6 26 33 12 39 12 39 73 46 34 3 81 6 105 6 l44 0 -56 -85 c-130 -199
-205 -419 -230 -667 l-6 -68 36 0 c36 0 36 0 36 43 0 58 17 171 36 238 l16 56
51 -19 c29 -10 58 -21 65 -23 10 -4 5 -17 -17 -47 -61 -87 -61 -193 0 -278 59
-82 143 -103 230 -57 64 34 100 97 107 188 5 79 0 76 89 40 51 -20 53 -20 63
-1 21 39 12 46 -147 105 -87 32 -164 63 -170 68 -16 11 -17 88 -3 139 14 48
71 98 112 98 40 0 100 -61 120 -122 13 -39 17 -43 44 -40 16 2 31 6 33 8 7 6
-28 89 -57 133 -28 43 -106 91 -146 91 -41 -1 -105 -39 -135 -80 -31 -43 -56
-135 -48 -176 2 -13 2 -24 -1 -24 -3 0 -43 14 -88 31 l-82 31 13 37 c24 69 87
186 152 284 36 53 67 97 70 97 5 0 320 -216 405 -277 l46 -33 21 28 20 29
-137 93 c-75 52 -174 119 -219 150 -45 30 -82 60 -83 66 -1 30 235 231 366
312 83 51 244 136 249 130 1 -2 14 -22 28 -45 l26 -41 -48 -12 c-78 -19 -131
-88 -131 -173 l0 -27 -40 20 c-103 53 -191 -10 -191 -135 0 -84 41 -150 120
-190 26 -13 53 -16 117 -13 45 1 85 6 88 9 3 3 1 19 -4 36 -11 30 -11 30 -60
21 -128 -23 -224 63 -191 172 20 67 73 67 146 -1 38 -35 46 -38 67 -29 22 11
23 16 23 106 0 92 1 96 28 120 21 18 40 24 75 24 l47 0 84 -130 c83 -129 83
-129 107 -113 13 8 24 20 24 25 0 5 -57 97 -126 205 -135 211 -133 203 -61
225 31 9 36 15 31 32 -14 45 -16 45 -114 7z m-593 -1211 c3 0 3 -31 1 -69 -6
-80 -29 -127 -75 -154 -69 -40 -133 -15 -167 65 -28 68 -16 132 35 180 l39 37
81 -29 c44 -17 83 -30 86 -30z"/>
<path d="M8002 7012 c-10 -7 -8 -19 8 -55 18 -40 25 -47 50 -47 54 0 103 -93
68 -128 -20 -20 -30 -15 -103 53 -38 36 -85 72 -103 81 -94 44 -204 -54 -171
-153 17 -54 45 -90 93 -120 53 -33 51 -30 36 -48 -10 -12 -7 -23 16 -60 16
-25 32 -45 36 -45 4 0 15 11 24 25 9 13 69 59 134 100 149 96 163 111 162 169
-2 73 -75 191 -136 220 -36 17 -93 21 -114 8z m-22 -238 c28 -26 50 -50 50
-53 0 -14 -59 -41 -88 -41 -65 0 -113 79 -73 119 32 32 57 26 111 -25z"/>
<path d="M4578 6332 c-14 -37 -52 -128 -83 -202 -103 -245 -166 -394 -185
-442 l-20 -48 325 0 324 0 -43 103 c-124 290 -278 643 -284 649 -4 4 -19 -23
-34 -60z"/>
<path d="M456 5889 c-16 -47 -25 -94 -18 -99 4 -3 89 -26 189 -50 101 -25 183
-47 183 -50 0 -3 -100 -37 -222 -75 l-221 -70 -14 -59 c-7 -33 -12 -60 -10
-62 5 -6 567 -144 585 -144 14 0 21 9 25 33 4 17 9 42 13 54 5 19 0 23 -68 38
-40 9 -129 31 -196 49 l-124 32 144 47 c78 25 180 58 225 72 90 28 83 20 108
125 l6 25 -278 69 c-153 37 -288 70 -300 73 -14 3 -25 0 -27 -8z"/>
<path d="M4360 5523 c63 -72 230 -243 238 -243 7 0 60 54 217 218 l59 62 -273
0 -273 0 32 -37z"/>
<path d="M4977 5515 c-3 -11 -29 -108 -57 -215 -28 -107 -57 -216 -64 -242
l-13 -47 256 -273 c141 -150 290 -309 331 -354 41 -45 78 -82 82 -83 7 -1 -7
33 -177 424 -64 149 -156 362 -205 475 -141 328 -146 338 -153 315z"/>
<path d="M4211 5473 c-13 -35 -173 -415 -396 -935 -51 -120 -92 -218 -90 -218
4 0 590 652 614 682 11 15 5 52 -45 263 -33 135 -61 245 -64 245 -4 0 -12 -17
-19 -37z"/>
<path d="M8720 5415 c0 -51 2 -55 33 -71 41 -21 47 -31 47 -75 0 -39 -33 -82
-69 -92 -17 -4 -22 10 -47 139 -32 162 -27 158 -117 124 -91 -34 -138 -99
-139 -192 0 -69 18 -113 64 -153 53 -45 96 -58 172 -53 91 6 168 46 204 106
56 95 24 236 -67 293 -69 44 -81 40 -81 -26z m-100 -157 c7 -40 15 -79 17 -85
4 -9 -6 -13 -31 -13 -90 0 -119 113 -41 158 35 20 42 13 55 -60z"/>
<path d="M4764 5331 l-111 -116 61 -68 c61 -67 76 -78 76 -54 0 7 20 89 45
182 25 92 44 169 43 171 -2 1 -53 -51 -114 -115z"/>
<path d="M4330 5430 c1 -3 20 -83 43 -178 l42 -172 64 64 64 65 -41 48 c-42
50 -172 181 -172 173z"/>
<path d="M344 5202 c-41 -26 -69 -96 -61 -153 3 -22 17 -59 32 -81 l27 -40
-30 7 c-27 5 -30 3 -36 -26 -11 -58 -8 -78 17 -83 34 -8 418 -39 422 -35 1 2
6 30 10 62 7 55 7 57 -16 57 -56 0 -247 21 -276 31 -91 29 -82 159 11 159 19
0 92 -5 162 -11 144 -12 144 -13 144 62 l0 46 -70 7 c-39 3 -123 9 -188 12
-105 5 -120 4 -148 -14z"/>
<path d="M4517 5072 c-42 -42 -77 -84 -77 -92 1 -22 145 -608 152 -615 3 -3
17 41 32 97 14 57 51 197 80 313 l54 210 -75 82 c-41 46 -78 83 -82 83 -3 0
-41 -35 -84 -78z"/>
<path d="M8296 4954 c-21 -53 11 -171 52 -193 12 -6 48 -11 81 -11 60 0 61 0
61 -28 0 -38 3 -39 52 -33 41 6 43 7 40 37 l-3 30 143 13 c79 6 160 14 180 17
l36 5 -5 57 c-3 31 -7 58 -8 59 0 2 -79 -4 -174 -13 -95 -9 -174 -14 -176 -12
-2 1 -5 21 -7 43 -2 23 -9 40 -16 39 -7 -1 -28 -2 -48 -2 l-36 -2 4 -45 3 -45
-37 0 c-42 0 -58 19 -58 69 0 29 -2 31 -39 31 -26 0 -41 -5 -45 -16z"/>
<path d="M4228 4763 c-329 -359 -581 -639 -585 -650 -3 -6 202 -321 454 -700
l458 -688 3 722 2 723 -91 372 c-50 205 -92 374 -94 376 -1 2 -68 -68 -147
-155z"/>
<path d="M4817 4910 c-3 -8 -46 -178 -96 -377 l-91 -361 2 -722 3 -721 475
677 c261 373 479 684 483 691 6 9 -92 117 -331 366 -186 193 -362 377 -390
407 -36 40 -52 51 -55 40z"/>
<path d="M383 4653 l-123 -4 0 -59 0 -59 161 -3 c157 -3 161 -4 181 -28 15
-19 18 -33 14 -61 -6 -37 -5 -37 41 -53 56 -19 63 -14 70 48 5 43 3 48 -31 81
l-37 35 32 0 c30 0 31 1 25 31 -3 17 -6 42 -6 55 0 27 24 26 -327 17z"/>
<path d="M8320 4540 l0 -60 55 0 55 0 0 60 0 60 -55 0 -55 0 0 -60z"/>
<path d="M8490 4541 c0 -42 4 -61 13 -61 6 0 108 -3 225 -7 l212 -6 0 61 0 62
-47 0 c-27 1 -128 3 -225 7 l-178 6 0 -62z"/>
<path d="M673 4342 c-40 -3 -43 -5 -43 -33 0 -16 -5 -29 -12 -29 -7 0 -71 -7
-141 -15 -138 -15 -171 -28 -188 -73 -12 -30 -6 -96 12 -134 10 -23 13 -24 54
-15 42 10 43 10 38 48 -6 44 -10 42 132 59 132 15 125 16 125 -31 0 -41 0 -41
31 -35 17 3 41 6 52 6 17 0 19 5 14 39 -6 44 2 51 58 51 18 0 46 3 63 6 l30 6
-37 54 c-35 52 -37 53 -83 54 -41 0 -48 3 -48 19 0 25 -5 27 -57 23z"/>
<path d="M8811 4208 c-7 -68 -14 -138 -18 -156 -5 -33 -6 -34 -52 -28 -181 22
-452 48 -457 44 -3 -3 -6 -32 -7 -64 l-2 -58 300 -32 c165 -17 301 -30 303
-28 4 2 52 428 49 430 -1 1 -25 5 -53 9 l-51 6 -12 -123z"/>
<path d="M568 3956 c-202 -50 -219 -61 -226 -154 -5 -73 16 -123 67 -157 l35
-25 -32 -6 c-28 -6 -31 -9 -25 -33 19 -78 18 -76 54 -73 27 2 326 69 390 88
14 4 15 11 4 62 -13 66 2 63 -159 25 -150 -35 -182 -35 -212 0 -28 33 -32 82
-8 108 10 12 72 31 170 55 85 20 154 39 154 43 -1 24 -28 105 -35 107 -6 1
-85 -17 -177 -40z"/>
<path d="M8331 3509 c-7 -22 -15 -47 -18 -55 -3 -8 5 -16 21 -20 34 -8 33 -16
-4 -32 -48 -21 -74 -67 -78 -137 -3 -53 0 -65 26 -106 52 -81 195 -135 289
-110 105 29 165 145 119 234 -8 15 -11 27 -7 27 27 0 103 -35 112 -52 22 -41
-12 -138 -49 -138 -15 0 -32 -30 -70 -120 -1 -4 11 -10 29 -14 44 -9 111 23
136 65 26 43 63 161 63 203 0 44 -29 97 -68 123 -19 12 -131 54 -250 94 -120
39 -222 73 -228 76 -6 2 -16 -15 -23 -38z m207 -154 c58 -27 84 -68 75 -118
-9 -45 -49 -70 -108 -65 -103 9 -164 63 -151 134 14 73 90 93 184 49z"/>
<path d="M850 3463 c-8 -3 -98 -35 -200 -70 -102 -36 -186 -66 -188 -67 -2 -2
10 -40 32 -102 3 -8 49 4 133 32 179 61 219 57 232 -22 l6 -39 53 -3 52 -3 0
46 c0 38 -5 52 -29 76 -16 16 -37 29 -45 29 -9 0 -16 5 -16 10 0 6 6 10 14 10
25 0 28 19 10 65 -16 44 -24 49 -54 38z"/>
<path d="M3190 3231 c-89 -27 -209 -127 -250 -207 -21 -41 -25 -63 -25 -139 0
-108 22 -161 96 -230 65 -61 126 -76 214 -54 49 12 49 13 20 99 l-12 35 -67
-3 c-64 -4 -67 -3 -100 30 -55 55 -60 141 -13 205 29 39 111 108 153 128 18 8
52 15 77 15 100 0 169 -120 121 -212 -16 -30 -15 -31 22 -69 21 -22 44 -39 51
-39 22 0 63 99 63 152 0 112 -99 257 -196 286 -46 13 -115 14 -154 3z"/>
<path d="M5913 3194 c-38 -19 -70 -58 -108 -133 -23 -45 -26 -64 -23 -112 2
-32 12 -69 23 -85 l18 -28 37 43 c33 38 36 46 27 70 -12 33 -4 69 24 104 22
29 46 34 71 15 15 -12 14 -22 -13 -108 -49 -156 -37 -224 46 -261 100 -44 195
39 195 170 0 51 1 53 24 47 21 -5 29 1 55 44 17 28 31 52 31 54 0 2 -15 6 -32
10 -18 3 -89 44 -159 91 -69 47 -138 87 -155 90 -17 3 -42 -1 -61 -11z m198
-216 c9 -7 21 -23 27 -35 35 -65 -21 -150 -83 -127 -32 13 -36 49 -13 123 22
74 24 75 69 39z"/>
<path d="M1103 3177 l-41 -22 25 -50 c14 -27 27 -51 28 -53 3 -3 85 36 94 44
8 7 -42 104 -53 104 -6 -1 -30 -11 -53 -23z"/>
<path d="M879 3077 c-64 -28 -153 -68 -197 -87 -45 -19 -82 -38 -82 -41 0 -4
10 -29 23 -57 l22 -50 200 89 c110 48 201 92 203 98 4 13 -35 101 -45 101 -4
0 -60 -24 -124 -53z"/>
<path d="M8149 2996 c-63 -44 -94 -135 -69 -201 11 -29 12 -28 -37 -8 -7 3
-23 -17 -37 -45 l-25 -49 201 -102 c110 -56 201 -101 203 -99 1 2 14 25 28 53
l25 50 -122 63 c-66 35 -131 72 -142 84 -55 51 -25 148 46 148 11 0 82 -31
156 -70 75 -38 138 -70 140 -70 5 0 56 101 52 104 -2 2 -69 37 -150 79 -173
91 -215 101 -269 63z"/>
<path d="M5548 2946 l-37 -43 42 -41 42 -41 31 37 c49 60 49 60 7 97 -21 19
-40 34 -43 35 -3 0 -22 -20 -42 -44z"/>
<path d="M904 2779 l-191 -111 29 -53 29 -53 127 74 c149 87 184 94 226 43 54
-63 31 -93 -152 -199 -63 -37 -110 -70 -108 -77 3 -6 16 -30 30 -52 l25 -40
113 65 c226 131 235 140 226 233 -6 63 -39 108 -100 136 -48 22 -48 22 -26 38
l23 15 -24 46 c-13 25 -27 46 -30 46 -3 0 -92 -50 -197 -111z"/>
<path d="M5683 2830 c-18 -21 -33 -43 -33 -48 0 -11 319 -322 330 -322 3 0 22
20 43 44 l36 44 -168 161 c-93 89 -170 161 -172 161 -2 0 -19 -18 -36 -40z"/>
<path d="M5426 2830 c-21 -16 -41 -31 -43 -34 -3 -3 25 -48 62 -100 l66 -96
-46 0 c-90 0 -156 -68 -163 -169 -5 -67 15 -123 74 -202 49 -67 106 -99 174
-99 87 0 138 42 161 134 11 46 12 47 27 24 8 -13 17 -25 18 -27 1 -1 21 12 44
30 26 21 39 38 35 48 -9 24 -356 521 -363 521 -4 0 -24 -14 -46 -30z m130
-319 c16 -10 45 -42 64 -71 43 -68 46 -128 7 -167 -50 -51 -112 -29 -174 61
-26 38 -33 58 -33 96 0 42 4 52 31 74 36 31 63 33 105 7z"/>
<path d="M3487 2696 c-92 -34 -167 -142 -167 -241 0 -111 113 -225 222 -225
87 0 154 42 205 127 65 112 26 250 -92 318 -52 31 -119 39 -168 21z m156 -136
c33 -36 35 -75 7 -129 -28 -57 -74 -91 -119 -91 -74 0 -117 67 -92 142 11 34
71 100 101 111 29 12 75 -3 103 -33z"/>
<path d="M7738 2616 c-16 -24 -28 -46 -28 -49 0 -9 72 -57 85 -57 8 0 65 82
65 94 0 5 -79 56 -87 56 -5 0 -20 -20 -35 -44z"/>
<path d="M4325 2566 c-2 -12 -18 -149 -35 -306 -17 -157 -33 -297 -36 -311 -5
-25 -3 -26 52 -33 31 -3 59 -5 61 -2 3 2 20 141 39 308 18 166 35 313 37 326
2 12 -1 22 -7 23 -6 0 -32 4 -59 8 -43 7 -48 6 -52 -13z"/>
<path d="M7881 2520 l-30 -49 177 -117 c97 -64 184 -119 192 -121 12 -3 45 40
68 88 2 5 -295 202 -365 242 -7 4 -23 -12 -42 -43z"/>
<path d="M4668 2553 c-43 -4 -48 -7 -48 -29 0 -28 51 -638 53 -640 1 -1 29 1
62 4 l60 7 -2 40 c-7 104 -44 564 -49 593 -3 17 -10 31 -17 30 -7 -1 -33 -3
-59 -5z"/>
<path d="M3914 2465 c-18 -9 -42 -27 -54 -40 l-22 -23 47 -32 c43 -29 48 -31
64 -16 24 22 59 20 99 -4 27 -16 32 -26 32 -56 l0 -37 -52 7 c-194 23 -222 19
-257 -38 -32 -52 -35 -95 -9 -146 38 -74 119 -104 218 -79 11 3 14 -3 12 -22
-3 -23 3 -28 50 -46 l53 -20 7 47 c4 26 28 104 53 175 55 155 58 200 15 248
-33 38 -124 83 -185 92 -27 4 -50 0 -71 -10z m124 -290 c9 -9 -31 -86 -49 -96
-53 -28 -119 3 -119 56 0 51 25 64 102 53 34 -4 64 -10 66 -13z"/>
<path d="M5044 2446 c-16 -7 -47 -33 -67 -57 -28 -33 -37 -38 -37 -23 0 39
-12 44 -66 28 l-51 -14 54 -232 c30 -128 55 -233 56 -235 1 -1 28 6 60 14 44
13 56 20 52 32 -20 67 -57 244 -59 281 -2 77 44 122 108 106 31 -8 47 -49 86
-217 17 -73 32 -135 34 -137 3 -3 67 11 102 23 8 2 1 49 -21 147 -48 212 -54
229 -90 265 -28 28 -40 33 -81 33 -27 -1 -63 -7 -80 -14z"/>
<path d="M7582 2384 c-18 -25 -32 -47 -30 -48 2 -2 41 -30 88 -63 47 -33 159
-113 250 -177 l165 -116 22 27 c26 32 48 72 42 77 -16 14 -483 338 -493 342
-6 2 -26 -16 -44 -42z"/>
<path d="M1234 2360 c-99 -50 -164 -136 -164 -219 0 -83 58 -155 135 -168 l36
-6 -47 -33 c-62 -44 -83 -43 -128 6 -31 35 -36 46 -31 73 5 25 -1 43 -28 85
l-34 54 -26 -32 c-20 -24 -27 -42 -27 -76 0 -57 17 -96 69 -161 74 -94 156
-116 243 -65 56 33 377 284 378 295 0 5 -14 26 -32 48 -28 35 -33 38 -48 24
-24 -21 -33 -19 -26 8 13 54 -35 141 -95 172 -41 22 -126 19 -175 -5z m175
-125 c64 -64 -12 -190 -122 -202 -36 -4 -48 -1 -72 20 -44 37 -42 94 5 143 73
76 139 89 189 39z"/>
<path d="M7552 2063 c-47 -23 -84 -75 -90 -128 l-5 -45 -80 76 -80 75 -38 -43
c-21 -24 -37 -46 -36 -49 3 -8 437 -413 447 -417 4 -2 23 16 41 39 l33 42 -23
18 -23 19 31 0 c47 0 108 35 137 80 67 101 1 260 -135 330 -49 25 -132 26
-179 3z m111 -109 c103 -52 148 -154 92 -209 -35 -36 -90 -34 -142 4 -91 66
-112 141 -55 192 37 33 60 36 105 13z"/>
<path d="M1924 1618 c-98 -122 -185 -231 -193 -242 -13 -18 -11 -22 25 -53 21
-18 44 -33 49 -32 6 0 64 67 129 149 66 82 121 149 122 147 1 -1 -11 -105 -27
-232 l-30 -230 28 -23 c40 -33 73 -55 77 -51 1 2 89 111 195 242 l193 238 -28
22 c-52 41 -59 46 -65 47 -3 0 -61 -70 -129 -155 -68 -85 -126 -153 -128 -151
-1 2 11 109 28 237 l31 232 -43 38 c-24 21 -46 38 -49 39 -3 0 -87 -100 -185
-222z"/>
<path d="M7139 1672 c-52 -33 -117 -106 -126 -140 -6 -25 1 -109 10 -119 4 -3
27 7 52 22 42 24 46 29 40 56 -6 25 -1 35 28 64 40 40 66 44 92 16 17 -19 15
-23 -40 -100 -31 -45 -60 -94 -65 -111 -21 -73 45 -160 121 -160 71 0 124 42
163 128 15 33 23 41 38 37 11 -4 32 5 58 27 45 37 48 44 21 53 -11 3 -50 38
-88 78 -164 173 -169 177 -216 177 -30 0 -56 -8 -88 -28z m199 -215 c32 -48
29 -89 -9 -121 -17 -14 -36 -26 -43 -26 -23 0 -56 31 -56 53 0 22 64 127 78
127 4 0 17 -15 30 -33z"/>
<path d="M6764 1379 c-53 -26 -71 -45 -94 -105 -11 -27 -19 -44 -20 -39 0 6
-7 18 -14 28 -13 17 -16 16 -60 -13 -31 -21 -44 -36 -39 -44 5 -7 59 -92 122
-189 l115 -176 38 22 c67 37 67 36 -11 155 -81 126 -94 155 -86 194 8 34 49
68 82 68 33 0 64 -35 147 -166 38 -60 70 -110 71 -112 7 -8 104 62 98 72 -3 6
-48 74 -99 152 -117 178 -154 201 -250 153z"/>
<path d="M6270 1276 c-47 -23 -140 -67 -207 -99 l-122 -57 18 -43 c39 -91 234
-503 242 -511 5 -6 93 30 216 88 114 54 209 100 211 101 3 3 -35 84 -43 93 -2
2 -31 -11 -65 -28 -60 -30 -239 -110 -247 -110 -2 0 -20 33 -38 73 l-34 72
139 67 c77 37 140 70 140 73 0 11 -40 85 -46 85 -4 0 -67 -29 -140 -64 l-134
-65 -31 61 c-17 33 -27 64 -22 68 4 4 70 35 146 70 76 35 139 66 142 70 2 3
-6 27 -18 52 l-22 46 -85 -42z"/>
<path d="M2463 1269 c-24 -11 -43 -26 -43 -31 0 -6 17 -25 37 -43 33 -29 39
-31 61 -19 49 25 129 -30 116 -80 -8 -32 -22 -32 -100 -6 -141 49 -193 44
-234 -22 -60 -99 13 -211 146 -225 47 -5 55 -9 51 -24 -4 -13 8 -27 42 -49 26
-16 50 -30 53 -30 3 0 8 17 12 38 3 21 29 76 57 122 68 113 99 175 99 200 0
51 -54 112 -136 153 -75 38 -111 42 -161 16z m64 -256 c29 -9 53 -20 53 -24 0
-4 -15 -24 -34 -43 -43 -47 -85 -49 -127 -7 -20 20 -27 35 -22 48 17 48 43 54
130 26z"/>
<path d="M2978 1173 c-9 -2 -23 -20 -30 -39 -11 -32 -15 -35 -43 -30 -28 6
-32 3 -45 -31 -8 -21 -16 -41 -18 -45 -2 -5 2 -8 10 -8 40 -1 38 -16 -17 -133
-63 -133 -72 -166 -56 -205 13 -31 66 -66 118 -77 28 -6 34 -3 42 17 23 61 23
68 4 68 -22 0 -43 18 -43 37 0 9 80 194 95 221 1 1 19 -5 40 -13 20 -9 38 -15
40 -13 4 4 35 79 35 84 0 2 -16 12 -35 21 l-35 18 30 64 c17 34 30 65 30 67 0
5 -100 3 -122 -3z"/>
<path d="M3195 960 c-10 -17 -102 -295 -108 -326 -9 -46 28 -113 75 -137 45
-23 117 -24 159 -3 33 17 35 13 15 -34 -5 -12 6 -20 46 -33 28 -9 53 -15 54
-14 3 3 144 413 144 419 0 11 -102 40 -110 32 -4 -5 -27 -65 -51 -134 -52
-151 -79 -186 -137 -177 -39 7 -72 37 -72 66 0 9 21 77 46 151 25 74 46 141
47 149 2 16 -100 54 -108 41z"/>
<path d="M3711 773 c-5 -21 -28 -112 -51 -203 -22 -91 -43 -172 -46 -181 -3
-12 8 -19 52 -28 30 -7 58 -11 60 -8 3 2 20 61 39 131 19 70 42 138 51 152 22
33 61 41 97 20 16 -9 31 -15 32 -14 19 26 55 84 55 90 0 14 -59 38 -93 38 -20
0 -46 -9 -62 -22 l-28 -22 6 31 c6 30 4 31 -38 42 -62 16 -63 15 -74 -26z"/>
<path d="M4115 713 c-84 -44 -120 -114 -119 -233 0 -86 14 -121 68 -168 40
-35 90 -52 154 -52 60 0 102 21 146 71 l37 44 -56 17 -57 18 -25 -30 c-40 -48
-109 -35 -138 25 -27 59 -22 68 38 61 28 -3 86 -8 127 -11 41 -4 85 -8 98 -11
21 -4 22 -2 22 63 -1 103 -47 184 -123 212 -41 16 -137 13 -172 -6z m159 -104
c14 -17 26 -42 26 -55 l0 -24 -82 6 c-46 4 -87 10 -91 14 -11 10 18 66 40 79
36 21 80 13 107 -20z"/>
</g>
</svg>
